<svg width="24" height="25" viewBox="0 0 26 26" fill="none" xmlns="http://www.w3.org/2000/svg">
<g filter="url(#filter0_d_20_1066)">
<path d="M23.4294 10.0299C23.3368 10.0191 23.2436 10.0137 23.1503 10.0133H20.8055L21.1467 6.41752C21.1463 5.64354 20.8392 4.90127 20.2922 4.35349C19.7454 3.80587 19.0037 3.4974 18.2296 3.49576C17.533 3.48857 16.856 3.72754 16.3182 4.17029C15.7802 4.61322 15.4158 5.23168 15.2892 5.91685C15.221 6.42749 15.0863 6.92686 14.8882 7.40237C14.4789 8.34024 13.7475 9.65353 12.4179 10.0345C12.049 10.0897 11.6759 10.113 11.303 10.1036C10.426 10.1036 9.42705 10.0345 9.42705 10.0345C8.80469 10.0369 8.20863 10.286 7.76964 10.7272C7.33048 11.1681 7.08414 11.7653 7.08447 12.3875V19.9007C7.08447 20.5226 7.33162 21.1191 7.77127 21.5588C8.2111 21.9986 8.80745 22.2456 9.42935 22.2456H22.2897C22.8684 22.2461 23.427 22.0338 23.8593 21.6493C24.2916 21.2647 24.5675 20.7346 24.6346 20.1598L25.494 12.6562C25.5707 12.0337 25.3958 11.4064 25.0082 10.9134C24.6205 10.4205 24.0523 10.1023 23.4293 10.03L23.4294 10.0299ZM11.4098 20.4972H9.42951C9.27527 20.4933 9.12838 20.4303 9.01928 20.3212C8.91019 20.2121 8.84721 20.0653 8.84329 19.911V12.3969C8.84656 12.2469 8.90561 12.1037 9.00914 11.9952C9.11268 11.8868 9.25302 11.8209 9.40252 11.8107C9.67093 11.8284 10.5246 11.8776 11.3207 11.8776H11.4087L11.4098 20.4972ZM23.7288 12.4614L22.8812 19.965C22.8642 20.1095 22.7953 20.2426 22.6875 20.3401C22.5797 20.4376 22.4402 20.4925 22.295 20.495H13.1638V11.6703C15.2741 10.9269 16.1992 8.8388 16.5087 8.133H16.5089C16.7688 7.51948 16.9477 6.87468 17.0411 6.21485C17.0965 5.93989 17.246 5.69273 17.4638 5.51578C17.6816 5.3388 17.9541 5.24328 18.2346 5.24524C18.5297 5.24901 18.8127 5.36399 19.0266 5.5673C19.2407 5.77045 19.3703 6.04687 19.3894 6.34145L19.0705 9.87756L18.8982 11.7909H23.1445C23.304 11.7955 23.455 11.8629 23.5647 11.9786C23.6747 12.094 23.7344 12.2483 23.7308 12.4076C23.7321 12.4252 23.7308 12.4427 23.7285 12.4616L23.7288 12.4614Z" fill="#787C84"/>
</g>
<defs>
<filter id="filter0_d_20_1066" x="0" y="0.5" width="32" height="32" filterUnits="userSpaceOnUse" color-interpolation-filters="sRGB">
<feFlood flood-opacity="0" result="BackgroundImageFix"/>
<feOffset dy="4"/>
<feGaussianBlur stdDeviation="2"/>
<feComposite in2="hardAlpha" operator="out"/>
<feColorMatrix type="matrix" values="0 0 0 0 0 0 0 0 0 0 0 0 0 0 0 0 0 0 0.25 0"/>
<feBlend mode="normal" in2="BackgroundImageFix" result="effect1_dropShadow_20_1066"/>
<feBlend mode="normal" in="SourceGraphic" in2="effect1_dropShadow_20_1066" result="shape"/>
</filter>
</defs>
</svg>
